<svg width="1062" height="288" viewBox="0 0 1062 288" fill="none" xmlns="http://www.w3.org/2000/svg">
    <path d="M347.319 119.966C351.452 119.966 355.587 119.139 359.72 117.486C363.028 115.831 364.68 112.524 363.855 108.391C363.855 105.083 362.202 101.776 359.72 100.123C357.24 98.4682 352.279 96.8148 346.492 96.8148H319.208V119.966H347.319ZM341.531 77.7988C345.666 77.7988 349.799 76.9722 353.932 75.3188C357.24 73.6655 358.894 70.3575 358.894 67.0508C358.894 63.7428 357.24 60.4362 354.76 58.7828C351.452 56.3028 347.319 55.4762 343.184 56.3028H320.035V78.6255H341.531V77.7988ZM296.884 34.8055H345.666C358.067 34.8055 367.162 38.1135 372.95 43.9002C378.736 48.8615 381.218 55.4762 381.218 62.0895C381.218 64.5708 381.218 67.8775 380.391 70.3575C378.736 74.4922 376.256 78.6255 372.95 81.9335C371.295 83.5868 369.642 84.4135 367.988 85.2402C373.776 86.8935 378.736 90.2015 382.871 94.3348C386.178 98.4682 387.831 103.43 387.831 110.871C387.831 115.004 387.004 119.966 385.351 123.272C383.698 126.58 380.391 129.887 377.083 132.367C372.95 134.848 368.815 136.502 364.68 138.155C359.72 139.808 353.932 139.808 348.146 139.808H297.711V34.8055H296.884Z"
          fill="rgb(55 65 81)"/>
    <path d="M416.77 34.8054H439.92V140.635H416.77V34.8054Z" fill="rgb(55 65 81)"/>
    <path d="M475.471 34.806H496.969L546.575 100.122V34.806H569.725V140.635H549.883L497.795 73.666V140.635H475.471V34.806Z"
          fill="rgb(55 65 81)"/>
    <path d="M664.808 96.8151L650.752 62.0897L636.696 96.8151H664.808ZM640.002 33.9791H661.501L706.973 140.635H682.997L673.074 116.658H628.429L618.506 140.635H594.53L640.002 33.9791Z"
          fill="rgb(55 65 81)"/>
    <path d="M731.777 34.806H753.273L802.881 100.122V34.806H826.031V140.635H806.188L754.927 73.666V140.635H731.777V34.806Z"
          fill="rgb(55 65 81)"/>
    <path d="M910.363 142.289C902.923 142.289 895.482 140.636 888.867 138.154C875.638 132.368 865.718 122.446 859.93 109.217C857.449 102.602 855.795 95.1611 855.795 87.7211C855.795 73.6651 861.583 59.6091 871.505 48.8611C876.465 43.8998 882.253 39.7665 888.867 37.2865C896.309 33.9798 903.75 33.1518 911.19 33.1518C915.325 33.1518 920.285 33.1518 924.419 33.9798C928.554 34.8065 931.861 35.6331 935.169 37.2865C938.475 38.9398 941.781 40.5945 944.262 42.2465C946.742 43.8998 950.05 46.3811 952.53 48.8611L938.475 66.2238C934.341 62.9171 930.207 59.6091 926.073 57.1291C921.939 54.6491 916.978 53.8225 912.017 53.8225C907.883 53.8225 903.75 54.6491 899.615 56.3025C895.482 57.9558 892.174 60.4358 889.694 63.7438C887.214 67.0505 884.733 70.3585 883.079 74.4918C881.426 78.6251 880.599 82.7598 880.599 86.8945C880.599 91.0278 881.426 95.9878 883.079 100.122C884.733 104.257 886.387 107.564 889.694 110.87C895.482 117.485 903.75 120.792 912.017 120.792C916.978 120.792 922.766 119.965 927.726 117.485C931.861 115.005 936.822 111.697 940.129 108.39L955.01 123.273C952.53 125.753 949.223 129.06 946.742 131.54C943.435 134.021 940.129 135.674 936.822 137.328C933.514 138.982 929.381 140.636 925.246 141.462C919.458 142.289 914.498 142.289 910.363 142.289Z"
          fill="rgb(55 65 81)"/>
    <path d="M981.467 34.806H1060.84V55.4754H1003.79V76.9727H1054.22V97.642H1003.79V119.966H1061.67V140.635H981.467V34.806Z"
          fill="rgb(55 65 81)"/>
    <path d="M326.649 244.811C320.861 244.811 315.073 243.985 310.113 241.505C305.151 239.85 300.191 236.543 295.231 232.409L303.498 223.314C306.806 226.621 310.113 228.275 314.246 230.755C318.381 232.409 322.514 233.235 326.649 233.235C329.955 233.235 333.262 232.409 336.57 230.755C339.05 229.102 339.877 226.621 339.877 224.141C339.877 223.314 339.877 221.662 339.05 220.835C338.223 220.007 337.397 218.354 336.57 217.527C334.917 216.701 333.262 215.874 331.61 215.047C329.129 214.221 325.822 213.394 323.342 212.566C320.034 211.739 315.899 210.913 312.593 209.259C310.113 208.433 306.806 206.779 305.151 205.125C303.498 203.471 301.845 201.818 300.191 199.338C298.538 196.03 298.538 192.723 298.538 190.242C298.538 186.937 299.365 184.455 300.191 181.149C301.018 178.669 303.498 176.187 305.151 174.534C307.633 172.881 310.113 171.227 313.419 170.399C316.727 169.573 320.034 168.746 323.342 168.746C328.302 168.746 333.262 169.573 338.223 171.227C342.358 172.881 346.491 175.361 350.625 177.841L344.011 187.762C340.705 185.283 337.397 183.629 334.09 181.975C330.782 180.322 327.475 180.322 324.169 180.322C320.861 180.322 317.554 181.149 315.073 182.802C313.419 184.455 311.766 186.935 311.766 189.415C311.766 191.069 311.766 191.895 312.593 193.55C313.419 194.377 314.246 196.03 315.073 196.857C316.727 197.683 318.381 198.51 320.861 199.338C323.342 200.165 325.822 200.991 329.955 201.818C333.262 202.645 336.57 203.471 340.705 205.125C343.185 205.951 345.665 207.606 348.145 209.259C349.798 210.913 351.453 213.394 352.279 215.047C353.106 217.527 353.933 220.007 353.933 223.314C353.933 226.621 353.106 229.929 352.279 232.409C350.625 234.89 348.971 237.37 346.491 239.85C344.011 241.505 341.531 243.158 338.223 243.985C334.09 243.985 329.955 244.811 326.649 244.811Z"
          fill="rgb(55 65 81)"/>
    <path d="M367.988 169.573H382.044L404.367 204.298L427.518 169.573H441.572V243.985H428.344V190.242L405.194 224.968H404.367L381.218 190.242V243.985H367.988V169.573Z"
          fill="rgb(55 65 81)"/>
    <path d="M505.236 214.22L492.008 184.456L479.605 214.22H505.236ZM486.22 168.747H498.623L530.867 243.157H516.812L509.371 224.968H474.645L467.204 243.157H453.975L486.22 168.747Z"
          fill="rgb(55 65 81)"/>
    <path d="M576.34 205.952C580.474 205.952 584.608 205.125 587.089 202.645C589.569 200.164 591.222 196.857 591.222 193.549C591.222 190.243 589.569 186.936 587.089 184.456C583.781 181.976 579.646 181.148 575.513 181.148H556.497V205.952H576.34ZM544.094 169.573H577.166C581.301 169.573 585.434 170.4 589.569 171.227C592.876 172.053 596.184 174.535 598.662 177.015C600.316 178.668 601.97 181.148 603.624 184.456C604.45 186.936 605.277 190.243 605.277 193.549C605.277 196.031 604.45 199.337 603.624 201.817C602.797 204.299 601.144 205.952 600.316 208.432C598.662 210.087 597.009 211.74 594.53 213.393C592.049 215.047 589.569 215.873 587.089 216.701L606.93 244.812H591.222L573.033 219.181H556.497V244.812H543.268L544.094 169.573Z"
          fill="rgb(55 65 81)"/>
    <path d="M639.176 181.148H615.2V169.572H675.554V181.148H651.578V243.984H638.349L639.176 181.148Z" fill="rgb(55 65 81)"/>
    <path d="M755.754 244.811C750.792 244.811 745.832 243.985 740.871 241.505C731.778 237.37 724.336 230.755 721.028 221.662C719.375 216.701 717.722 211.739 718.548 206.779C718.548 201.818 719.375 196.857 721.028 191.895C724.336 182.802 731.778 175.361 740.871 171.227C745.832 169.573 750.792 167.919 756.58 167.919C759.888 167.919 763.195 167.919 765.675 168.746C768.156 169.573 770.635 170.399 773.115 171.227C775.596 172.054 777.25 173.707 779.73 174.534C781.384 176.187 783.864 177.841 785.518 179.495L777.25 189.415C774.77 186.937 771.462 184.455 768.156 182.802C764.848 181.149 760.715 180.322 756.58 180.322C753.274 180.322 749.966 181.149 746.659 181.975C743.351 183.629 740.871 185.283 738.391 187.763C735.91 190.242 734.258 192.723 733.431 196.03C732.604 199.338 731.778 202.645 731.778 205.951C731.778 209.259 732.604 212.566 733.431 215.874C734.258 219.181 735.911 221.662 738.391 224.141C740.871 226.621 743.351 228.275 746.659 229.929C749.966 231.582 753.274 232.409 756.58 231.582C760.715 231.582 764.848 230.755 768.156 229.102C771.462 227.449 774.77 224.967 778.076 221.662L786.344 229.929L780.558 235.717C778.076 237.37 776.423 239.023 773.943 239.85C771.462 240.677 768.983 242.331 765.675 242.331C762.368 244.811 759.06 244.811 755.754 244.811Z"
          fill="rgb(55 65 81)"/>
    <path d="M799.574 169.573H811.976V200.164H847.528V169.573H860.757V243.985H847.528V212.566H811.976V243.985H799.574V169.573Z"
          fill="rgb(55 65 81)"/>
    <path d="M924.419 214.22L912.016 184.456L899.615 214.22H924.419ZM906.23 168.747H918.631L950.876 243.157H936.822L929.38 224.968H894.655L887.214 243.157H873.984L906.23 168.747Z"
          fill="rgb(55 65 81)"/>
    <path d="M964.105 169.573H977.333V243.985H964.105V169.573Z" fill="rgb(55 65 81)"/>
    <path d="M997.177 169.573H1008.75L1048.44 220.834V169.573H1061.67V243.985H1050.92L1010.4 191.069V243.985H997.177V169.573Z"
          fill="rgb(55 65 81)"/>
    <path d="M123.258 0.0806799L198.496 43.9007L171.212 60.4367L124.085 32.326L76.1304 60.4367L48.8464 43.9007L123.258 0.0806799ZM123.258 55.4754L151.369 72.0113L123.258 88.5474L95.9744 72.0113L123.258 55.4754ZM218.34 55.4754L246.45 72.0113V104.257L218.34 120.793V88.5474L191.056 72.0113L218.34 55.4754ZM28.1771 55.4754L56.2877 72.0113L28.1771 88.5474V120.793L0.893066 104.257V72.0113L28.1771 55.4754ZM198.496 155.517V187.762L171.212 204.298V172.053L198.496 155.517ZM48.0197 155.517L75.3037 172.053V204.298L48.0197 187.762V155.517ZM170.385 83.586L198.496 100.122V132.367L151.369 160.478V216.701L124.085 233.235L96.8011 216.701V160.478L48.0197 132.367V100.122L76.1304 83.586L123.258 111.697L170.385 83.586ZM245.622 127.406V215.874L170.385 259.693V227.447L217.512 199.337V143.942L245.622 127.406ZM0.893066 127.406L28.1771 143.942V199.337L75.3037 227.447V259.693L0.893066 215.874V127.406ZM151.369 239.023V271.269L123.258 287.805L95.9744 271.269V239.023L123.258 255.559L151.369 239.023Z"
          fill="rgb(55 65 81)"/>
</svg>
