<svg viewBox="0 0 169 30" fill="none" xmlns="http://www.w3.org/2000/svg">
	<path d="M25 17.8001C24.5 18.1001 23.9 18.2001 23.5 17.9001C22.9 17.6001 22.6 16.8001 22.6 15.8001V12.6001C22.6 11.1001 22 10.0001 21 9.7001C19.3 9.2001 18 11.3001 17.5 12.1001L14.5 17.0001V11.0001C14.5 9.6001 14 8.8001 13.2 8.6001C12.6 8.4001 11.8 8.5001 11 9.7001L4.29999 20.5001C3.39999 18.8001 2.89999 16.9001 2.89999 14.9001C2.89999 8.4001 8.09999 3.1001 14.5 3.1001C20.9 3.1001 26.1 8.5001 26.1 15.0001C26.2 16.3001 25.8 17.3001 25 17.8001ZM28.7 15.0001C28.7 7.0001 22.3 0.600098 14.5 0.600098C6.69999 0.600098 0.299988 7.1001 0.299988 15.0001C0.299988 22.9001 6.69999 29.4001 14.5 29.4001C18.1 29.4001 21.5 28.0001 24.2 25.5001C24.7 25.0001 24.8 24.2001 24.3 23.6001C23.8 23.1001 23 23.0001 22.5 23.5001C20.4 25.5001 17.5 26.7001 14.6 26.7001C11.2 26.7001 8.09999 25.2001 5.89999 22.8001L12 13.0001V17.5001C12 19.7001 12.8 20.4001 13.5 20.6001C14.2 20.8001 15.3 20.7001 16.4 18.8001L19.7 13.4001C19.8 13.2001 19.9 13.1001 20 12.9001V15.6001C20 17.6001 20.8 19.2001 22.2 20.0001C23.5 20.7001 25.1 20.7001 26.4 19.8001C28 19.1001 28.8 17.2001 28.7 15.0001ZM48.5 10.1001C48.8 10.3001 49.1 10.8001 49.1 11.2001C49.1 11.9001 48.5 12.4001 47.9 12.4001C47.7 12.4001 47.6 12.4001 47.4 12.3001C46.6 11.7001 45.7 11.4001 44.7 11.4001C42.3 11.4001 40.7 13.3001 40.7 15.7001C40.7 18.1001 42.3 20.0001 44.7 20.0001C45.9 20.0001 46.9 19.5001 47.7 18.8001C47.9 18.7001 48.2 18.6001 48.4 18.6001C49 18.6001 49.5 19.1001 49.5 19.8001C49.5 20.2001 49.2 20.6001 48.9 20.8001C47.8 21.8001 46.2 22.4001 44.6 22.4001C41 22.4001 38 19.4001 38 15.7001C38 12.0001 41 9.0001 44.6 9.0001C46.2 8.9001 47.5 9.3001 48.5 10.1001ZM55.2 12.9001C57.7 12.9001 59.8 15.0001 59.8 17.6001C59.8 20.2001 57.7 22.4001 55.2 22.4001C52.6 22.4001 50.4 20.2001 50.4 17.6001C50.4 15.0001 52.6 12.9001 55.2 12.9001ZM55.2 20.0001C56.3 20.0001 57.2 19.0001 57.2 17.6001C57.2 16.2001 56.3 15.3001 55.2 15.3001C54 15.3001 53 16.2001 53 17.6001C53 19.0001 54 20.0001 55.2 20.0001ZM61.3 20.9001V14.3001C61.3 13.6001 61.9 13.0001 62.6 13.0001C63.3 13.0001 63.9 13.6001 63.9 14.3001V20.9001C63.9 21.6001 63.3 22.2001 62.6 22.2001C61.9 22.2001 61.3 21.6001 61.3 20.9001ZM61.1 10.5001C61.1 9.6001 61.8 9.0001 62.6 9.0001C63.4 9.0001 64.1 9.7001 64.1 10.5001C64.1 11.3001 63.4 12.0001 62.6 12.0001C61.8 12.0001 61.1 11.3001 61.1 10.5001ZM68.8 17.3001V20.9001C68.8 21.6001 68.2 22.2001 67.5 22.2001C66.8 22.2001 66.2 21.6001 66.2 20.9001V14.0001C66.2 13.4001 66.7 13.0001 67.2 13.0001C67.7 13.0001 68.2 13.5001 68.2 14.0001C69.2 13.0001 70.2 12.9001 71 12.9001C73.6 12.9001 74.7 14.8001 74.7 17.0001V20.9001C74.7 21.6001 74.1 22.2001 73.4 22.2001C72.7 22.2001 72.1 21.6001 72.1 20.9001V17.3001C72.1 16.2001 72 15.2001 70.3 15.2001C69.3 15.2001 68.8 16.2001 68.8 17.3001ZM83.2 18.7001C82.9 18.7001 82.7 18.6001 82.5 18.4001L79.5 15.1001V20.9001C79.5 21.6001 78.9 22.2001 78.2 22.2001C77.5 22.2001 76.9 21.6001 76.9 20.9001V9.4001C77 9.2001 77.2 9.1001 77.4 9.1001C77.6 9.1001 77.8 9.3001 77.9 9.4001L82.7 14.8001C82.8 15.0001 83 15.1001 83.1 15.1001C83.2 15.1001 83.4 15.0001 83.5 14.8001L88.3 9.4001C88.4 9.3001 88.6 9.1001 88.8 9.1001C89 9.1001 89.2 9.2001 89.3 9.4001V20.9001C89.3 21.6001 88.7 22.2001 88 22.2001C87.3 22.2001 86.7 21.6001 86.7 20.9001V15.1001L83.7 18.4001C83.6 18.5001 83.4 18.7001 83.2 18.7001ZM95.5 20.0001C96.7 20.0001 97.6 19.0001 97.6 17.6001C97.6 16.2001 96.6 15.3001 95.5 15.3001C94.4 15.3001 93.5 16.2001 93.5 17.6001C93.5 18.9001 94.4 20.0001 95.5 20.0001ZM98.3 21.2001V20.9001C97.8 21.9001 96.2 22.3001 95.2 22.3001C92.8 22.3001 91 20.1001 91 17.5001C91 14.9001 92.8 12.8001 95.3 12.8001C95.7 12.8001 97.2 12.9001 98.3 14.2001V13.9001C98.3 13.3001 98.7 12.9001 99.3 12.9001C99.8 12.9001 100.3 13.4001 100.3 13.9001V21.1001C100.3 21.7001 99.8 22.1001 99.3 22.1001C98.7 22.2001 98.3 21.8001 98.3 21.2001ZM107.4 15.2001H107.1C105.5 15.3001 105.2 16.2001 105.2 17.3001V20.9001C105.2 21.6001 104.6 22.2001 103.9 22.2001C103.2 22.2001 102.6 21.6001 102.6 20.9001V14.0001C102.6 13.4001 103.1 13.0001 103.6 13.0001C104.1 13.0001 104.6 13.5001 104.6 14.0001C105.6 13.1001 106.3 12.9001 107.1 12.9001H107.4C108 12.9001 108.6 13.4001 108.6 14.1001C108.5 14.7001 108 15.2001 107.4 15.2001ZM117.3 20.3001C117.4 20.5001 117.5 20.7001 117.5 20.9001C117.5 21.6001 116.9 22.2001 116.2 22.2001C115.7 22.2001 115.4 21.9001 115.1 21.5001L112.1 18.1001V20.9001C112.1 21.6001 111.5 22.2001 110.8 22.2001C110.1 22.2001 109.5 21.6001 109.5 20.9001V10.4001C109.5 9.7001 110.1 9.1001 110.8 9.1001C111.5 9.1001 112.1 9.7001 112.1 10.4001V17.0001L115.1 13.7001C115.4 13.4001 115.8 13.0001 116.2 13.0001C116.8 13.0001 117.4 13.6001 117.4 14.3001C117.4 14.5001 117.4 14.7001 117.2 14.9001L114.9 17.5001L117.3 20.3001ZM122.3 15.3001C121.6 15.3001 120.5 15.7001 120.5 16.8001H124.2C124.2 15.6001 123 15.3001 122.3 15.3001ZM125.7 18.4001H120.5C120.5 19.9001 122 20.2001 122.6 20.2001C123.1 20.2001 123.8 20.1001 124.3 19.9001C124.5 19.8001 124.7 19.7001 125 19.7001C125.6 19.7001 126 20.2001 126 20.8001C126 21.2001 125.7 21.5001 125.4 21.7001C124.6 22.3001 123.6 22.4001 122.6 22.4001C120 22.4001 117.8 21.0001 117.8 17.7001C117.8 15.1001 119.1 12.9001 122.2 12.9001C124.7 12.9001 126.6 14.5001 126.6 17.4001C126.7 17.9001 126.3 18.4001 125.7 18.4001ZM132.9 22.3001H132.2C130.2 22.3001 129.1 21.4001 129.1 18.4001V15.2001H128.4C127.8 15.2001 127.2 14.6001 127.2 14.0001C127.2 13.3001 127.7 12.8001 128.4 12.8001H129.1V10.4001C129.1 9.7001 129.7 9.1001 130.4 9.1001C131.1 9.1001 131.7 9.7001 131.7 10.4001V12.8001H132.8C133.4 12.8001 134 13.3001 134 14.0001C134 14.6001 133.5 15.2001 132.8 15.2001H131.7V17.9001C131.7 19.7001 131.8 20.0001 132.6 20.0001H133C133.6 20.0001 134.1 20.5001 134.1 21.2001C134 21.8001 133.5 22.3001 132.9 22.3001ZM145.3 10.1001C145.6 10.3001 145.9 10.8001 145.9 11.2001C145.9 11.9001 145.3 12.4001 144.7 12.4001C144.5 12.4001 144.4 12.4001 144.2 12.3001C143.4 11.7001 142.5 11.4001 141.5 11.4001C139.1 11.4001 137.5 13.3001 137.5 15.7001C137.5 18.1001 139.1 20.0001 141.5 20.0001C142.7 20.0001 143.7 19.5001 144.5 18.8001C144.7 18.7001 145 18.6001 145.2 18.6001C145.8 18.6001 146.3 19.1001 146.3 19.8001C146.3 20.2001 146 20.6001 145.7 20.8001C144.6 21.8001 143 22.4001 141.4 22.4001C137.8 22.4001 134.8 19.4001 134.8 15.7001C134.8 12.0001 137.8 9.0001 141.4 9.0001C143 8.9001 144.3 9.3001 145.3 10.1001ZM151.9 20.0001C153.1 20.0001 154 19.0001 154 17.6001C154 16.2001 153 15.3001 151.9 15.3001C150.8 15.3001 149.9 16.2001 149.9 17.6001C149.8 18.9001 150.7 20.0001 151.9 20.0001ZM154.6 21.2001V20.9001C154.1 21.9001 152.5 22.3001 151.5 22.3001C149.1 22.3001 147.3 20.1001 147.3 17.5001C147.3 14.9001 149.1 12.8001 151.6 12.8001C152 12.8001 153.5 12.9001 154.6 14.2001V13.9001C154.6 13.3001 155 12.9001 155.6 12.9001C156.1 12.9001 156.6 13.4001 156.6 13.9001V21.1001C156.6 21.7001 156.1 22.1001 155.6 22.1001C155 22.2001 154.6 21.8001 154.6 21.2001ZM163.7 20.0001C164.8 20.0001 165.7 18.9001 165.7 17.6001C165.7 16.2001 164.8 15.3001 163.7 15.3001C162.6 15.3001 161.6 16.2001 161.6 17.6001C161.5 19.0001 162.5 20.0001 163.7 20.0001ZM161.5 21.6001V24.9001C161.5 25.6001 160.9 26.2001 160.2 26.2001C159.5 26.2001 158.9 25.6001 158.9 24.9001V14.0001C158.9 13.4001 159.4 13.0001 159.9 13.0001C160.4 13.0001 160.9 13.5001 160.9 14.1001C161.9 13.1001 163 12.9001 163.9 12.9001C166.4 12.9001 168.2 15.0001 168.2 17.6001C168.2 20.2001 166.4 22.4001 164 22.4001C163.3 22.3001 162.2 22.1001 161.5 21.6001Z" fill="rgb(55 65 81)"/>
</svg>
