<svg viewBox="0 0 601 159" fill="none" xmlns="http://www.w3.org/2000/svg">
	<path d="M248.2 68.9C246.6 62.5 242.5 57.9 234.4 57.9C222.5 57.9 217.6 68.4 217.6 79C217.6 89.6 222.6 100.1 234.4 100.1C243 100.1 247.7 93.7 248.5 85.6H258C257.2 98.9 247.8 108 234.4 108C217.8 108 207.9 94.8 207.9 79C207.9 63.2 217.8 50 234.4 50C246.9 50.1 256.7 57 257.9 68.9H248.2ZM263.8 86.6C263.8 74.3 271.2 65.5 284 65.5C296.8 65.5 304.2 74.3 304.2 86.6C304.2 98.9 296.8 107.8 284 107.8C271.2 107.8 263.8 98.9 263.8 86.6ZM295.4 86.6C295.4 79.7 291.9 72.5 284 72.5C276.1 72.5 272.6 79.7 272.6 86.6C272.6 93.5 276.1 100.8 284 100.8C291.9 100.8 295.4 93.6 295.4 86.6ZM311.8 51.3H320.6V59.7H311.8V51.3ZM311.8 66.6H320.6V106.7H311.8V66.6ZM330.3 66.6H338.7V72.5L338.9 72.7C341.5 68.3 346.2 65.5 351.4 65.6C360.1 65.6 365.6 70.3 365.6 79.2V106.7H356.8V81.5C356.6 75.2 354.2 72.5 349 72.5C343.1 72.5 339.3 77.1 339.3 83V106.7H330.5V66.6H330.3ZM424.4 106.7H418.2L416.7 100.2C411.5 106.1 406.8 108 400 108C383.4 108 373.5 94.8 373.5 79C373.5 63.2 383.4 50 400 50C412.1 50 422.3 56.4 423.7 68.9H414.2C413.3 61.6 406.9 57.9 399.9 57.9C388 57.9 383.1 68.4 383.1 79C383.1 89.6 388.1 100.1 399.9 100.1C409.8 100.3 415.3 94.3 415.4 84.9H400.7V77.5H424.3L424.4 106.7ZM440.6 88.9C440.6 95.2 444 100.8 451.4 100.8C456.5 100.8 459.6 98.6 461.2 94.1H469.6C467.7 102.9 460.2 107.8 451.4 107.8C438.8 107.8 431.8 99 431.8 86.7C431.8 75.3 439.3 65.5 451.2 65.5C463.8 65.5 471.6 76.9 470.1 88.9H440.6V88.9ZM461.2 83.1C460.9 77.5 457.1 72.5 451.1 72.5C445 72.5 440.8 77.1 440.5 83.1H461.2ZM503.9 80C503.2 75.1 499.6 72.5 494.7 72.5C490.1 72.5 483.7 74.9 483.7 87.1C483.7 93.8 486.6 100.8 494.3 100.8C499.4 100.8 503 97.4 503.8 91.6H512.6C511 102 504.6 107.7 494.2 107.7C481.6 107.7 474.7 98.8 474.7 87C474.7 74.9 481.3 65.4 494.5 65.4C503.8 65.4 511.7 70.1 512.6 79.9H503.9V80ZM520.2 51.3H529V82.8L545 66.6H555.9L540.5 81.3L557.3 106.7H546.5L534.2 87.2L528.9 92.3V106.7H520.1V51.3H520.2ZM559.7 86.6C559.7 74.3 567.1 65.5 579.9 65.5C592.8 65.5 600.1 74.3 600.1 86.6C600.1 98.9 592.7 107.8 579.9 107.8C567.1 107.8 559.7 98.9 559.7 86.6ZM591.4 86.6C591.4 79.7 587.9 72.5 580 72.5C572.1 72.5 568.6 79.7 568.6 86.6C568.6 93.5 572.1 100.8 580 100.8C587.9 100.8 591.4 93.6 591.4 86.6Z" fill="rgb(55 65 81)"/>
	<path fill-rule="evenodd" clip-rule="evenodd" d="M110.2 152.5C139.8 140.1 158.9 111.1 158.8 79.0002C158.6 35.2002 123 -0.0997881 79.1 0.00021194C47.1 0.200212 18.2 19.6002 6.09997 49.3002C-6.00003 79.0002 0.899975 113.1 23.7 135.7C46.5 158.3 80.6 164.9 110.2 152.5ZM107.9 147C135.3 135.5 153 108.7 152.9 79C152.7 38.5 119.7 5.90004 79.1 6.10004C49.5 6.30004 22.8 24.2 11.6 51.7C0.399976 79.1 6.79998 110.6 27.9 131.5C49 152.3 80.5 158.5 107.9 147Z" fill="rgb(55 65 81)"/>
	<path d="M79.8 40.2002C83.5 40.5002 96.9 44.8002 100.3 47.2002C97.4 38.9002 87.8 37.8002 79.8 40.2002Z" fill="rgb(55 65 81)"/>
	<path d="M79.1 61.4003C79.1 65.4003 76.7 69.1003 72.9 70.6003C69.2 72.1003 64.9 71.3003 62 68.4003C59.1 65.5003 58.3 61.3003 59.8 57.5003C61.3 53.8003 65 51.3003 69 51.3003C74.6 51.4003 79.1 55.9003 79.1 61.4003Z" fill="rgb(55 65 81)"/>
	<path d="M134.5 81.7C123 89.8 109.9 95.9 91.4 95.9C82.7 95.9 81 86.7 75.2 91.2C72.2 93.5 61.8 98.7 53.5 98.4C45.2 98 31.8 93.1 28.1 75.5C26.6 93.2 25.9 106.2 19.2 121.1C32.4 142.3 63.9 158.6 92.5 151.6C89.4 130.1 108.2 109.1 118.7 98.4C122.8 94.2 130.5 87.6 134.5 81.7Z" fill="rgb(55 65 81)"/>
	<path fill-rule="evenodd" clip-rule="evenodd" d="M116.7 53.1003C111.715 51.6896 106.554 49.6597 101.299 47.593L100.3 47.2003C100 45.8003 98.7 44.1003 96.2 41.9003C92.6 38.7003 85.7 38.8003 79.8 40.2003C73.3 38.7003 66.8 38.1003 60.6 39.6003C28.7359 48.3991 28.2341 65.0977 27.6419 84.8057C27.2919 96.4557 26.9102 109.157 20 121.9C22.6 127.5 51.2 160.3 92.5 151.5C92.5 151.5 78.4 117.6 110.3 101.3C136.2 88.1003 154.8 63.5003 116.7 53.1003ZM123 75.4C123 78.1 119.7 79.5 117.8 77.6C115.9 75.7 117.2 72.4 119.9 72.3C121.6 72.4 123 73.7 123 75.4ZM83.3 61.3C83.3 67 79.8 72.2 74.5 74.4C69.2 76.6 63.1 75.4 59 71.3C54.9 67.2 53.7 61.1 55.9 55.8C58.1 50.5 63.3 47 69 47C72.8 47 76.4 48.5 79 51.1C81.8 53.9 83.3 57.5 83.3 61.3ZM133.388 82.7471C133.594 82.5675 133.798 82.3852 134 82.2H134.1C133.865 82.3858 133.627 82.5681 133.388 82.7471ZM133.388 82.7471C129.767 85.4589 125.728 87.4115 121.6 89.1C117.2 90.9 112.6 92.3 108 93.3C103.4 94.2 98.7 94.5 94 94.4C89.4 94.2 84.7 93.3 80.7 90.7L80.5 90.9C83.8 94.6 88.8 96.3 93.8 96.7C98.7 97.1 103.6 96.2 108.3 95C113 93.7 117.5 92.1 121.9 90C125.959 88.0178 129.928 85.7684 133.388 82.7471Z" fill="rgb(55 65 81)"/>
</svg>
