<svg width="968" height="213" viewBox="0 0 968 213" fill="none" xmlns="http://www.w3.org/2000/svg">
    <path d="M364.575 123.357C369.136 119.325 371.418 113.945 371.418 107.224C371.418 100.502 369.136 95.1249 365.031 90.6422C360.926 86.1609 355.451 84.3689 349.519 84.3689C344.502 84.3689 339.938 85.2649 336.288 87.5049C332.639 89.2982 329.902 92.4355 327.622 96.4689V116.634C328.99 120.668 331.727 123.805 334.92 126.046C338.571 128.286 342.676 129.63 347.695 129.63C354.538 129.63 360.012 127.39 364.575 123.357V123.357ZM379.175 67.7875C385.106 71.3729 390.124 76.3022 393.318 83.0235C396.967 89.7462 398.792 97.8129 398.792 106.776C398.792 115.738 396.967 123.357 392.86 130.08C389.211 136.801 383.736 141.73 376.892 144.868C370.05 148.453 361.838 150.246 353.17 150.246C348.151 150.246 343.588 149.349 339.026 147.557C334.464 146.213 330.358 143.522 327.164 140.386V186.994H300.703V64.2022H323.515L325.796 74.0609C335.832 65.9955 346.782 61.9622 358.187 61.9622C365.943 61.9622 373.243 63.7542 379.175 67.7875"
          fill="#374151"/>
    <path d="M441.22 122.451C444.869 126.932 449.888 128.725 455.819 128.725C461.749 128.725 466.769 126.484 470.419 122.451C474.068 118.419 475.893 112.591 475.893 106.319C475.893 99.5959 474.068 94.2186 470.419 90.1852C466.312 85.7039 461.749 83.4626 455.363 83.4626C449.432 83.4626 444.869 85.7039 440.764 89.7372C437.113 94.2186 435.289 99.5959 435.289 106.319C435.289 112.591 437.113 117.971 441.22 122.451ZM414.303 83.4626C418.409 77.1892 423.883 71.8119 431.183 68.2266C438.481 64.6412 446.695 62.3999 455.819 62.3999C464.944 62.3999 473.156 64.1932 480.455 68.2266C487.299 71.8119 492.773 77.1892 496.879 83.9106C500.985 90.6332 502.809 97.8039 502.809 106.319C502.809 114.833 500.985 122.004 496.879 128.725C492.773 135.447 487.755 140.824 480.455 144.411C473.611 147.995 464.944 150.236 455.819 150.236C446.695 150.236 438.481 148.443 431.183 144.859C423.883 141.273 418.409 136.344 414.303 129.621C410.652 122.9 408.371 115.28 408.371 106.319C408.371 97.8039 410.652 90.1852 414.303 83.4626"
          fill="#374151"/>
    <path d="M545.699 148H519.239V0.561359H545.699V148Z" fill="#374151"/>
    <path d="M654.278 66.4369L600.444 187.436H574.896L594.969 143.966L556.646 66.4369H586.757L608.656 114.836L630.554 66.4369H654.278Z"
          fill="#374151"/>
    <path d="M728.639 116.626V96.4596C726.814 92.4263 724.077 89.289 719.971 87.0476C715.865 84.8076 711.304 83.4623 705.829 83.4623C699.442 83.4623 693.966 85.7036 689.403 89.737C684.842 93.7703 682.559 99.1476 682.559 105.87C682.559 112.145 684.842 117.97 689.403 122.45C693.966 126.932 699.442 129.173 705.829 129.173C716.322 128.725 724.077 124.692 728.639 116.626ZM755.557 66.433V147.994C755.557 155.613 753.277 162.784 748.714 169.058C744.152 175.332 738.221 180.262 730.463 183.846C722.709 187.432 714.497 189.224 705.373 189.224C698.529 189.224 692.598 188.328 687.579 186.985C682.559 185.192 678.454 183.398 675.261 181.606C671.611 179.365 667.962 176.676 663.855 173.092L679.368 155.165C683.017 158.752 687.122 161.44 690.773 163.233C694.423 165.025 699.442 166.369 704.917 166.369C711.759 166.369 717.233 164.577 721.797 161.44C726.358 158.302 728.639 153.374 728.639 147.546V135.896C725.902 139.929 722.253 143.514 716.778 146.204C711.303 148.892 704.917 150.236 697.615 150.236C690.317 150.236 683.017 148.442 676.629 144.41C670.242 140.824 665.224 135.446 661.118 128.725C657.469 122.004 655.188 114.833 655.188 106.766C655.188 98.6996 657.012 91.081 661.118 84.3596C665.224 77.637 670.242 72.2596 677.086 68.2263C683.473 64.193 690.317 62.401 697.615 62.401C704.459 62.401 710.389 63.2956 715.865 65.089C721.339 66.881 725.446 69.5703 728.183 72.7076L730.921 66.433H755.557Z"
          fill="#374151"/>
    <path d="M803.926 122.46C807.575 126.941 812.592 128.734 818.523 128.734C824.455 128.734 829.472 126.493 833.122 122.46C836.772 118.428 838.598 112.601 838.598 106.328C838.598 99.605 836.772 94.2276 833.122 90.1943C829.472 86.161 824.455 83.921 818.523 83.921C812.592 83.921 808.031 86.161 803.926 90.1943C799.819 94.2276 797.994 100.053 797.994 106.328C798.451 112.601 800.275 117.98 803.926 122.46ZM777.463 83.4716C781.568 76.7503 787.044 71.821 794.343 67.7876C801.643 64.2023 809.855 61.961 818.98 61.961C828.106 61.961 836.316 63.7543 843.616 67.7876C850.459 71.373 855.935 76.7503 860.04 83.4716C863.69 90.1943 865.971 97.365 865.971 105.878C865.971 114.394 864.147 121.564 860.04 128.286C856.391 135.008 850.916 140.386 843.616 143.972C836.772 147.557 828.106 149.797 818.98 149.797C809.855 149.797 801.643 148.004 794.343 144.42C787.044 140.834 781.568 135.905 777.463 129.184C773.358 122.46 771.532 114.842 771.532 105.432C771.532 97.813 773.358 90.1943 777.463 83.4716Z"
          fill="#374151"/>
    <path d="M959.501 69.1224C964.976 73.6038 967.252 79.4291 967.705 86.5998V147.994H940.792V96.4584C940.336 88.3931 936.23 84.3598 928.473 84.3598C922.542 84.3598 917.525 87.0478 913.874 92.8731C910.225 98.6998 908.401 105.87 908.401 114.384V147.994H881.938V66.4331H906.118L907.944 79.4291C911.138 74.0518 915.244 70.0184 920.717 66.8811C926.193 63.7451 932.581 62.3998 939.88 62.3998C947.634 62.3998 954.478 64.6411 959.501 69.1224Z"
          fill="#374151"/>
    <path d="M187.558 65.099C182.995 62.4096 177.065 62.4096 172.047 65.099L136.461 85.7136L112.281 99.1576L76.6952 119.772C72.1326 122.46 66.2019 122.46 61.1833 119.772L32.8966 103.639C28.3353 100.95 25.1406 96.0203 25.1406 90.643V58.8243C25.1406 53.447 27.8793 48.5176 32.8966 45.8283L60.7273 30.1443C65.2899 27.4549 71.2206 27.4549 76.2393 30.1443L104.069 45.8283C108.631 48.5176 111.825 53.447 111.825 58.8243V79.439L136.005 65.547V44.9323C136.005 39.555 133.267 34.6256 128.249 31.9363L76.6952 2.35894C72.1326 -0.329059 66.2019 -0.329059 61.1833 2.35894L8.71792 31.9363C3.69792 34.6256 0.961914 39.555 0.961914 44.9323V104.536C0.961914 109.912 3.69792 114.844 8.71792 117.532L61.1833 147.11C65.7459 149.798 71.6766 149.798 76.6952 147.11L112.281 126.943L136.461 113.051L172.047 92.8843C176.609 90.195 182.539 90.195 187.558 92.8843L215.389 108.57C219.95 111.258 223.143 116.187 223.143 121.566V153.383C223.143 158.762 220.407 163.69 215.389 166.379L187.558 182.514C182.995 185.202 177.065 185.202 172.047 182.514L144.217 166.828C139.654 164.139 136.461 159.208 136.461 153.831V133.218L112.281 147.11V167.724C112.281 173.102 115.018 178.031 120.037 180.72L172.502 210.296C177.065 212.986 182.995 212.986 188.014 210.296L240.481 180.72C245.042 178.031 248.237 173.102 248.237 167.724V108.122C248.237 102.743 245.499 97.8136 240.481 95.1256L187.558 65.099Z"
          fill="#374151"/>
</svg>
